<svg xmlns="http://www.w3.org/2000/svg" width="565.559" height="454.988" viewBox="0 0 565.559 454.988">
  <g id="_1" data-name="1" transform="translate(-276.02 -269.508)">
    <path id="Path_15039" data-name="Path 15039" d="M538.3,302.68a.9.9,0,0,0-1.05,0q-80.17,57.38-160.34,114.71-5.27,3.76-8.55,4.37a12.266,12.266,0,0,1-10.89-3.2c-6.84-6.12-5.84-16.1,1.48-21.34q89.3-63.81,178.47-127.6a.585.585,0,0,1,.69,0q87.01,62.27,174.07,124.45c2.75,1.96,6.07,4.19,7.95,6.72,8.98,12.09-6.54,27.33-19.05,18.38Q619.61,360.91,538.3,302.68Z" fill="#1369ff"/>
    <path id="Path_15040" data-name="Path 15040" d="M460.12,293.13c1.71,4.37.87,10.99.94,15.72a.863.863,0,0,1-.38.76l-45.65,32.46q-.45.32-.45-.23.05-22.08.09-44.47c.02-6.49,3.4-8.45,9.58-8.45q14.37,0,28.74-.03Q458.47,288.88,460.12,293.13Z" fill="#393536"/>
    <path id="Path_15041" data-name="Path 15041" d="M687.37,602.62a17.552,17.552,0,0,1-14.17-.75q-3.29-1.7-9.86-8.94-23.07-25.48-46.09-51.02c-5.09-5.65-7.91-9.8-6.99-17.04a2.046,2.046,0,0,0-.51-1.63l-14.11-15.62a.41.41,0,0,0-.53-.06,86.507,86.507,0,0,1-75.49,10.26c-35.98-11.95-60.35-46.73-58.68-84.63,2.27-51.25,48.13-88.52,98.57-81.45,36.99,5.18,67.25,34.89,72.59,72.31a85.37,85.37,0,0,1-19.19,67.49.525.525,0,0,0,.02.69q6.84,7.5,13.71,15.13a3.617,3.617,0,0,0,2.24.98c6.94.27,10.79,3.11,15.7,8.51q25.12,27.66,50.18,55.38C703.93,582.39,700.75,598.12,687.37,602.62ZM599.818,477.871c22.171-28.48,16.725-69.8-12.165-92.289s-70.28-17.633-92.451,10.846-16.725,69.8,12.165,92.29,70.278,17.633,92.449-10.846Z" fill="#1369ff"/>
    <path id="Path_15043" data-name="Path 15043" d="M525.15,386.03q4.18-1.65,5.98,2.47l.46,1.05a3.4,3.4,0,0,1-1.93,4.55c-18.11,6.72-25.68,21.1-30.36,38.76q-1.09,4.13-5.26,3.22l-.95-.21a3.53,3.53,0,0,1-2.72-4.09C494.07,411.5,505.44,393.78,525.15,386.03Z" fill="#1369ff"/>
    <path id="Path_15044" data-name="Path 15044" d="M414.53,401.68l16.56-11.87a.657.657,0,0,1,.673-.047.633.633,0,0,1,.347.567q.06,71.43-.03,142.05a6.568,6.568,0,0,0,1.19,4.4,6.035,6.035,0,0,0,4.73,1.86q81.71.13,163.43.01a.89.89,0,0,1,.79.48c3.42,6.39,8.4,11.41,13.34,16.53a.4.4,0,0,1,.08.448.427.427,0,0,1-.39.253q-89.36-.05-178.25-.07a22.671,22.671,0,0,1-22.07-16.27,37.4,37.4,0,0,1-.81-9.35q.07-64.08-.01-128.16A.934.934,0,0,1,414.53,401.68Z" fill="#393536"/>
    <path id="Path_15045" data-name="Path 15045" d="M643.73,502.16a.505.505,0,0,1-.23-.42V389.99a.468.468,0,0,1,.248-.415.443.443,0,0,1,.473.035l16.86,12.09a.98.98,0,0,1,.42.83V518.75q0,1.28-.83.3C655.74,513.25,650.38,506.38,643.73,502.16Z" fill="#393536"/>
    <path id="Path_15046" data-name="Path 15046" d="M442.8,629.92a.238.238,0,0,0-.215.245.214.214,0,0,0,.235.205c12.99.58,28.78,7.52,27.67,23.38-1.24,17.73-21.02,22.16-35.04,22.21q-24.21.09-48.44.02a.452.452,0,0,1-.51-.5l-.05-2.69a.528.528,0,0,1,.46-.57c4.97-1.07,11.86-2.78,13.68-7.72a19.932,19.932,0,0,0,.63-6.05q.05-26.35.22-52.7a21.957,21.957,0,0,0-1.77-9.6c-1.36-2.82-9.75-4.63-12.72-5.63a.671.671,0,0,1-.5-.71l.06-2.53a.425.425,0,0,1,.48-.47q18.51-.06,37.01-.11c15.65-.04,45.78.79,41.84,25.57C464.06,623.48,452.6,628.33,442.8,629.92Zm9.48-22.14c-2.92-16.76-23.3-16.1-35.81-15.79a.466.466,0,0,0-.51.52V625.5a.95.95,0,0,0,.4.8c3.69,2.75,11.53,1.79,17.63,1.55C445.85,627.39,454.51,620.57,452.28,607.78Zm1.17,43.93c-1.04-18.56-21.74-18.97-35.36-18.82a1.54,1.54,0,0,0-1.46,1.09,9.914,9.914,0,0,0-.51,2.77q-.23,11.25.13,22.49c.43,13.54,8.85,10.93,19.74,10.65C446.31,669.62,454.05,662.32,453.45,651.71Z" fill="#127bcb"/>
    <path id="Path_15048" data-name="Path 15048" d="M578.26,614.42h16.31a.354.354,0,0,1,.4.4l.02,4.22a.45.45,0,0,1-.52.51l-15.96-.03a.521.521,0,0,0-.59.59q-.07,20.21.11,40.39a17.227,17.227,0,0,0,1.05,6.38c2.15,5.12,13.02,2.81,16.92,1.91q.58-.14.64.45l.36,3.78a.625.625,0,0,1-.37.68c-8.77,4.5-26.68,7.31-30.14-5.46a52.063,52.063,0,0,1-1.53-13.74q.1-17.2.11-34.4a.5.5,0,0,0-.56-.56l-9.08-.01a.54.54,0,0,1-.61-.6l-.02-1.13a.814.814,0,0,1,.54-.83c9.49-3.8,13.86-10.75,19.25-18.9a1.445,1.445,0,0,1,1.26-.65q2.18.08,2.08,2.84-.24,6.82-.17,13.67A.432.432,0,0,0,578.26,614.42Z" fill="#127bcb"/>
    <path id="Path_15049" data-name="Path 15049" d="M544.381,658.82a32.62,32.62,0,1,1-15.58-43.367,32.585,32.585,0,0,1,15.58,43.367Zm-14.691,6.15c7.29-11.35,4.5-36.8-7.17-45a16.152,16.152,0,0,0-21.39,2.94c-9.27,10.84-5.12,37.44,5.82,45.91A15.754,15.754,0,0,0,529.69,664.97Z" fill="#127bcb"/>
    <path id="Path_15050" data-name="Path 15050" d="M734.659,659.282a32.62,32.62,0,1,1-14.9-43.608,32.585,32.585,0,0,1,14.9,43.608ZM710.27,671.74c24.1-4.71,15.25-61.51-10.9-53.81C677.05,624.49,685.62,676.55,710.27,671.74Z" fill="#127bcb"/>
    <path id="Path_15051" data-name="Path 15051" d="M634.37,659.66a.25.25,0,0,0,.46,0q6.29-15.3,12.23-30.47c2.99-7.62-.85-9.34-7.25-10.8a.616.616,0,0,1-.53-.68l.02-2.65a.561.561,0,0,1,.64-.63l24.44-.01a.585.585,0,0,1,.58.58l.04,2.47a.646.646,0,0,1-.37.63c-4.75,2.49-8.37,3.74-10.84,9.52q-10.49,24.56-20.67,48.21a2.745,2.745,0,0,1-5.06-.03q-10.37-25.09-20.99-51.19a8.6,8.6,0,0,0-5.53-5.37q-2.04-.63-3.08-.99a.709.709,0,0,1-.52-.73l-.02-2.51a.5.5,0,0,1,.57-.58l29.72-.01a.53.53,0,0,1,.59.54l.25,2.7a.512.512,0,0,1-.42.6c-3.49.94-9.93,2.28-7.88,7.54Q627.43,642.86,634.37,659.66Z" fill="#127bcb"/>
    <path id="Path_15055" data-name="Path 15055" d="M383.28,718.7v-7.71a.443.443,0,0,1,.49-.5l2.8-.08a.42.42,0,0,1,.43.41v9.64a.7.7,0,0,1-.31.6c-8.04,5.89-21.01,3.5-23.53-6.43a14.013,14.013,0,0,1,2.16-12.26c4.68-6.45,15.74-7.5,21.71-1.49a.262.262,0,0,1-.01.43l-1.91,1.82a.358.358,0,0,1-.53.03,11.37,11.37,0,0,0-10.59-2.38c-14.97,4.23-5.61,26.62,8.92,18.55A.667.667,0,0,0,383.28,718.7Z" fill="#127bcb"/>
    <path id="Path_15056" data-name="Path 15056" d="M428.8,704.09c-.5,4.32,9.32,5.53,11.35,6.25,6.9,2.46,6.06,10.84-.39,13.18q-7.46,2.71-14.97-2.1a.73.73,0,0,1-.27-.92l.91-2.01q.27-.57.77-.2a13.949,13.949,0,0,0,11.73,2.37c4.32-.97,4.25-6.14-.01-7.31q-3.9-1.06-7.78-2.29c-6.99-2.21-6.9-10.98-.1-13.19a16.789,16.789,0,0,1,13.34,1.09.635.635,0,0,1,.29.82l-.89,2.02a.489.489,0,0,1-.79.26C438.89,700.24,429.46,698.29,428.8,704.09Z" fill="#127bcb"/>
    <path id="Path_15057" data-name="Path 15057" d="M582.14,710.595a14.32,14.32,0,1,1-14.334-13.755,14.053,14.053,0,0,1,14.334,13.755Zm-3.95.015a10.38,10.38,0,1,0-10.38,10.38A10.38,10.38,0,0,0,578.19,710.61Z" fill="#127bcb"/>
    <path id="Path_15058" data-name="Path 15058" d="M280.29,720.68l13.57.01a.48.48,0,0,1,.48.49l-.02,2.35a.48.48,0,0,1-.48.47H276.53a.48.48,0,0,1-.48-.48l-.03-25.79a.48.48,0,0,1,.48-.48l2.78-.01a.48.48,0,0,1,.48.48l.05,22.48A.48.48,0,0,0,280.29,720.68Z" fill="#127bcb"/>
    <path id="Path_15059" data-name="Path 15059" d="M305.03,717.49l-2.78,6.33a.32.32,0,0,1-.29.19l-3.26-.02a.32.32,0,0,1-.29-.45l11.83-26.11a.32.32,0,0,1,.29-.19l3.4-.02a.32.32,0,0,1,.3.19l11.86,26.13a.32.32,0,0,1-.29.45l-3.34.02a.32.32,0,0,1-.29-.19l-2.77-6.32a.32.32,0,0,0-.29-.19l-13.79-.01A.32.32,0,0,0,305.03,717.49Zm1.61-3.68a.31.31,0,0,0,.28.43H317.5a.31.31,0,0,0,.28-.43l-5.29-12.01a.31.31,0,0,0-.56,0Z" fill="#127bcb"/>
    <path id="Path_15060" data-name="Path 15060" d="M349.64,715.58l5.49,7.74q.47.67-.35.68h-2.53a1.64,1.64,0,0,1-1.33-.68l-4.91-7a1.1,1.1,0,0,0-.94-.49H338a.593.593,0,0,0-.66.67l.01,7.14a.36.36,0,0,1-.36.36l-3.25-.01q-.24,0-.24-.25V697.76a.447.447,0,0,1,.5-.5c4.79-.12,14.21-.95,17.81,2.16,5.03,4.34,4.4,12.55-1.96,15.37Q349.26,715.05,349.64,715.58Zm-12.32-14.73.02,11.44a.28.28,0,0,0,.28.28l7.24-.01c3.545-.006,6.414-2.509,6.41-5.59v-.84c-.005-3.084-2.885-5.577-6.431-5.57l-7.239.01A.28.28,0,0,0,337.32,700.85Z" fill="#127bcb"/>
    <path id="Path_15061" data-name="Path 15061" d="M401.61,700.89l-.03,7.5a.36.36,0,0,0,.36.36l12.7.01a.36.36,0,0,1,.36.36l.02,2.53a.36.36,0,0,1-.36.36h-12.7a.36.36,0,0,0-.36.36l-.02,7.94a.36.36,0,0,0,.36.36l14.94.02a.36.36,0,0,1,.36.36l-.03,2.59a.36.36,0,0,1-.36.36H398.11a.36.36,0,0,1-.36-.36V697.59a.36.36,0,0,1,.36-.36h18.25a.36.36,0,0,1,.36.36l-.04,2.6a.36.36,0,0,1-.36.36l-14.35-.02a.36.36,0,0,0-.36.36Z" fill="#127bcb"/>
    <path id="Path_15062" data-name="Path 15062" d="M458.98,700.55l-8.51-.03a.31.31,0,0,1-.31-.31l.01-2.67a.31.31,0,0,1,.31-.31h21.49a.31.31,0,0,1,.31.31l.01,2.7a.31.31,0,0,1-.31.31l-8.54-.02a.31.31,0,0,0-.31.31l.02,22.85a.31.31,0,0,1-.31.31l-3.24-.01a.31.31,0,0,1-.31-.31V700.86A.31.31,0,0,0,458.98,700.55Z" fill="#127bcb"/>
    <path id="Path_15063" data-name="Path 15063" d="M497.34,716.5l.01,7.14a.36.36,0,0,1-.36.36l-3.25-.01a.245.245,0,0,1-.24-.25V697.76a.416.416,0,0,1,.46-.47c5.88-.16,15.68-1.33,19.51,3.75a9.555,9.555,0,0,1-.93,11.91c-3.8,3.77-9.71,2.84-14.66,2.99A.5.5,0,0,0,497.34,716.5Zm-.03-15.65-.02,11.32a.35.35,0,0,0,.35.35l7.06.01c3.619.006,6.556-2.474,6.56-5.54v-.92c0-3.065-2.923-5.554-6.54-5.56l-7.06-.01A.35.35,0,0,0,497.31,700.85Z" fill="#127bcb"/>
    <path id="Path_15064" data-name="Path 15064" d="M540.65,715.6l5.47,7.72a.43.43,0,0,1-.35.68h-2.52a1.61,1.61,0,0,1-1.32-.68l-5.05-7.18a.707.707,0,0,0-.61-.31l-7.27.02a.579.579,0,0,0-.66.65v7.29a.168.168,0,0,1-.19.19l-3.4.02a.25.25,0,0,1-.25-.25V697.76a.4.4,0,0,1,.44-.45,108.829,108.829,0,0,1,12.55.09c9.64.81,11.91,12.99,3.33,17.51A.412.412,0,0,0,540.65,715.6Zm-12.3-14.78-.04,11.44a.28.28,0,0,0,.28.28l7.29.02c3.52.012,6.381-2.473,6.39-5.551v-.859c.009-3.075-2.833-5.577-6.35-5.59l-7.29-.02a.28.28,0,0,0-.28.28Z" fill="#127bcb"/>
    <path id="Path_15065" data-name="Path 15065" d="M595.08,716.51l.02,7.13a.36.36,0,0,1-.36.36l-3.24-.01a.245.245,0,0,1-.25-.24V697.77a.4.4,0,0,1,.44-.45c8.48-.3,21.23-1.55,21.14,9.01-.09,10.54-10.06,9.39-17.19,9.61A.5.5,0,0,0,595.08,716.51Zm-.02-15.6-.02,11.2a.41.41,0,0,0,.41.41l6.95.01c3.646.006,6.606-2.452,6.61-5.49v-1.02c0-3.037-2.946-5.5-6.59-5.51l-6.95-.01a.41.41,0,0,0-.41.41Z" fill="#127bcb"/>
    <path id="Path_15066" data-name="Path 15066" d="M626.43,708.76h12.73a.36.36,0,0,1,.36.36l-.02,2.53a.36.36,0,0,1-.36.36H626.46a.36.36,0,0,0-.36.36l-.03,7.95a.36.36,0,0,0,.36.36h14.94a.36.36,0,0,1,.36.36v2.6a.36.36,0,0,1-.36.36H622.61a.36.36,0,0,1-.36-.36V697.59a.36.36,0,0,1,.36-.36h18.22a.36.36,0,0,1,.36.36l.01,2.59a.36.36,0,0,1-.36.36l-14.39-.01a.36.36,0,0,0-.36.36l-.02,7.51A.36.36,0,0,0,626.43,708.76Z" fill="#127bcb"/>
    <path id="Path_15067" data-name="Path 15067" d="M667.4,715.62l5.48,7.7q.48.68-.35.68h-2.54a1.635,1.635,0,0,1-1.33-.69l-4.97-7.1a.862.862,0,0,0-.75-.39l-7.2.02a.592.592,0,0,0-.67.67l.03,7.28a.178.178,0,0,1-.19.2l-3.41.01a.25.25,0,0,1-.25-.25V697.76a.4.4,0,0,1,.45-.45,114.4,114.4,0,0,1,12.32.06c9.85.75,12.19,12.75,3.53,17.58A.408.408,0,0,0,667.4,715.62Zm-12.3-14.68-.06,11.18a.42.42,0,0,0,.42.43l7.05.03c3.572.019,6.481-2.439,6.5-5.491v-.959c.02-3.056-2.864-5.551-6.44-5.57l-7.05-.03A.42.42,0,0,0,655.1,700.94Z" fill="#127bcb"/>
    <path id="Path_15068" data-name="Path 15068" d="M687.49,700.54h-8.51a.31.31,0,0,1-.31-.31l-.02-2.69a.31.31,0,0,1,.31-.31h21.53a.31.31,0,0,1,.31.31v2.7a.31.31,0,0,1-.31.31l-8.53-.02a.31.31,0,0,0-.31.31v22.84a.31.31,0,0,1-.31.31l-3.24.01a.31.31,0,0,1-.31-.31l.01-22.84A.31.31,0,0,0,687.49,700.54Z" fill="#127bcb"/>
    <path id="Path_15069" data-name="Path 15069" d="M717.27,710.9l8.2-13.49a.31.31,0,0,1,.26-.14l3.15-.09a.31.31,0,0,1,.28.48L718.81,714.7a.31.31,0,0,0-.05.16v8.82a.31.31,0,0,1-.31.31l-3.14.02a.31.31,0,0,1-.31-.31v-8.9a.309.309,0,0,0-.05-.16l-10.34-16.96a.31.31,0,0,1,.27-.47l3.43.04a.31.31,0,0,1,.26.15l8.17,13.5a.31.31,0,0,0,.53,0Z" fill="#127bcb"/>
    <path id="Path_15070" data-name="Path 15070" d="M769.48,708.36l.02-10.74a.38.38,0,0,1,.38-.38h3.02a.38.38,0,0,1,.38.38v26a.38.38,0,0,1-.38.38l-3.06-.01a.38.38,0,0,1-.38-.38l.03-11.2a.38.38,0,0,0-.38-.38l-14.64.02a.38.38,0,0,0-.38.38l-.01,11.19a.38.38,0,0,1-.38.38h-3.06a.38.38,0,0,1-.38-.38V697.61a.38.38,0,0,1,.38-.38l3.07.01a.38.38,0,0,1,.38.38l-.02,10.74a.38.38,0,0,0,.38.38H769.1A.38.38,0,0,0,769.48,708.36Z" fill="#127bcb"/>
    <path id="Path_15071" data-name="Path 15071" d="M794.71,720.78c6.5.95,9.01-3.9,8.9-9.54q-.13-6.99-.13-13.73a.285.285,0,0,1,.28-.28l3.2-.01q.22,0,.22.23.12,8.06-.1,16.29c-.39,14.32-21.98,14.06-22.48.26q-.22-6.13-.06-16.52a.221.221,0,0,1,.25-.25l3.22.02a.282.282,0,0,1,.32.33q-.02,12.86.12,16.15Q788.72,719.91,794.71,720.78Z" fill="#127bcb"/>
    <path id="Path_15072" data-name="Path 15072" d="M837.26,710.36a6.808,6.808,0,0,1,.36,12.52c-4.56,2.07-13.55,1.16-18.64,1.09a.429.429,0,0,1-.48-.49V697.76a.443.443,0,0,1,.49-.5q6.04-.12,12,.02c4.26.1,8.44,1.35,9.03,6.14a6.72,6.72,0,0,1-2.85,6.37Q836.72,710.15,837.26,710.36Zm-14.97-9.55v7.54a.54.54,0,0,0,.54.54h7.72c3.148,0,5.7-1.715,5.7-3.83v-.96c0-2.115-2.552-3.83-5.7-3.83h-7.72a.54.54,0,0,0-.54.54Zm.03,11.42.02,8.48a.21.21,0,0,0,.21.21l9.68-.01c3.009-.006,5.444-1.882,5.44-4.19v-.54c0-2.309-2.449-4.176-5.459-4.17l-9.681.01a.21.21,0,0,0-.21.21Z" fill="#127bcb"/>
  </g>
</svg>
