<?xml version="1.0" encoding="UTF-8"?>
<svg xmlns="http://www.w3.org/2000/svg" xmlns:xlink="http://www.w3.org/1999/xlink" width="240px" height="70px" viewBox="0 0 240 70" version="1.1">
<g id="surface1">
<path style=" stroke:none;fill-rule:nonzero;fill:rgb(29.411765%,64.705882%,80.784314%);fill-opacity:1;" d="M 0.226562 70 L 240 70 L 240 0.117188 L 0.226562 0.117188 Z M 0.226562 70 "/>
<path style=" stroke:none;fill-rule:evenodd;fill:rgb(93.333333%,97.647059%,98.823529%);fill-opacity:1;" d="M 149.511719 44.921875 L 149.53125 44.917969 C 155.664062 44.269531 161.527344 43.277344 166.714844 42.085938 L 166.726562 42.085938 L 195.78125 48.867188 L 229 70.203125 L 177.941406 70.203125 Z M 149.511719 44.921875 "/>
<path style=" stroke:none;fill-rule:evenodd;fill:rgb(83.921569%,94.901961%,96.862745%);fill-opacity:1;" d="M 156.71875 41.90625 L 197.039062 70.203125 L 177.941406 70.203125 L 149.53125 44.917969 Z M 156.71875 41.90625 "/>
<path style=" stroke:none;fill-rule:evenodd;fill:rgb(93.333333%,97.647059%,98.823529%);fill-opacity:1;" d="M 156.03125 29.28125 L 213.132812 0.117188 L 240.519531 0.117188 L 240.519531 12.96875 L 206.289062 25.988281 L 170.753906 31.695312 Z M 156.03125 29.28125 "/>
<path style=" stroke:none;fill-rule:evenodd;fill:rgb(83.921569%,94.901961%,96.862745%);fill-opacity:1;" d="M 173.316406 31.285156 L 201.855469 24.734375 L 240.519531 9.085938 L 240.519531 12.96875 L 206.289062 25.988281 Z M 173.316406 31.285156 "/>
<path style=" stroke:none;fill-rule:evenodd;fill:rgb(85.882353%,95.294118%,98.039216%);fill-opacity:1;" d="M 89.445312 70.203125 L 120.429688 70.203125 L 120.429688 49.121094 L 89.445312 49.121094 Z M 89.445312 70.203125 "/>
<path style=" stroke:none;fill-rule:evenodd;fill:rgb(77.647059%,92.54902%,96.470588%);fill-opacity:1;" d="M 102.242188 49.121094 L 120.429688 49.121094 L 120.429688 70.203125 L 111.960938 70.203125 L 111.960938 54.183594 C 111.960938 53.050781 109.175781 52.101562 105.328125 51.929688 C 100.621094 51.714844 96.121094 51.234375 91.8125 50.519531 Z M 102.242188 49.121094 "/>
<path style=" stroke:none;fill-rule:evenodd;fill:rgb(68.627451%,87.058824%,90.980392%);fill-opacity:1;" d="M 118.574219 27.976562 L 66.023438 35.734375 C 42.355469 39.230469 56.355469 50.609375 82.8125 48.773438 L 141.46875 44.703125 Z M 118.574219 27.976562 "/>
<path style=" stroke:none;fill-rule:evenodd;fill:rgb(61.176471%,81.568627%,86.27451%);fill-opacity:1;" d="M 54.960938 39.484375 C 50.097656 44.078125 62.941406 50.152344 82.8125 48.773438 L 141.46875 44.703125 L 126.484375 33.753906 L 110.890625 30.976562 C 107.40625 33.460938 106.261719 36.175781 106.878906 39.058594 C 107.15625 40.351562 104.59375 41.5 100.429688 41.945312 C 92.726562 42.777344 85.019531 43.605469 77.316406 44.433594 C 72.949219 44.902344 68.582031 44.828125 64.441406 44.207031 C 60.296875 43.589844 57.527344 42.601562 56.273438 41.296875 C 55.742188 40.738281 55.304688 40.132812 54.960938 39.484375 "/>
<path style=" stroke:none;fill-rule:evenodd;fill:rgb(54.117647%,75.294118%,80.392157%);fill-opacity:1;" d="M 85.953125 48.554688 L 141.46875 44.703125 L 133.550781 38.914062 L 112.214844 37.46875 C 111.5 39.90625 113.074219 41.792969 115.558594 43.460938 C 97.703125 43.859375 87.816406 45.917969 85.953125 48.554688 "/>
<path style=" stroke:none;fill-rule:evenodd;fill:rgb(77.647059%,92.54902%,96.470588%);fill-opacity:1;" d="M 119.226562 26.9375 C 139.878906 23.941406 182.914062 26.285156 186.503906 31.65625 C 190.089844 37.023438 162.394531 45.511719 135.386719 45.75 C 113.597656 45.941406 100.664062 29.628906 119.226562 26.9375 "/>
<path style=" stroke:none;fill-rule:evenodd;fill:rgb(68.627451%,87.058824%,90.980392%);fill-opacity:1;" d="M 183.1875 29.703125 C 184.878906 30.300781 186.03125 30.949219 186.503906 31.65625 C 190.089844 37.023438 162.394531 45.511719 135.386719 45.75 C 122.714844 45.859375 113.042969 40.390625 110.8125 35.265625 C 115.453125 38.757812 121.6875 42.195312 133.984375 42.507812 C 157.402344 43.109375 176.988281 38.390625 182.503906 34.210938 C 183.832031 33.199219 185.152344 31.3125 183.1875 29.703125 "/>
<path style=" stroke:none;fill-rule:evenodd;fill:rgb(68.627451%,87.058824%,90.980392%);fill-opacity:1;" d="M 136.460938 27.890625 C 142.160156 27.890625 145.320312 29.476562 143.519531 31.429688 C 141.722656 33.386719 135.644531 34.972656 129.949219 34.972656 C 124.253906 34.972656 121.09375 33.386719 122.890625 31.429688 C 124.6875 29.476562 130.765625 27.890625 136.460938 27.890625 "/>
<path style=" stroke:none;fill-rule:evenodd;fill:rgb(77.647059%,92.54902%,96.470588%);fill-opacity:1;" d="M 85.953125 48.554688 C 88.25 45.257812 114.644531 42.980469 123.917969 45.921875 L 121.410156 49.980469 C 120.625 51.246094 89.035156 51.042969 87.71875 49.980469 Z M 85.953125 48.554688 "/>
<path style=" stroke:none;fill-rule:evenodd;fill:rgb(68.627451%,87.058824%,90.980392%);fill-opacity:1;" d="M 85.953125 48.554688 C 88.25 45.257812 114.644531 42.980469 123.917969 45.921875 L 121.410156 49.980469 C 121.058594 50.546875 114.527344 50.820312 107.304688 50.851562 C 110.441406 50.691406 113.441406 50.453125 116.242188 50.097656 C 117.75 49.90625 118.703125 49.519531 118.835938 49.042969 L 119.253906 47.554688 C 119.445312 46.867188 117.824219 46.257812 115.5 46.144531 C 104.964844 45.617188 94.1875 46.476562 85.953125 48.554688 "/>
<path style=" stroke:none;fill-rule:evenodd;fill:rgb(93.333333%,97.647059%,98.823529%);fill-opacity:1;" d="M 125.503906 34.113281 L 0.226562 21.410156 L 0.226562 0.117188 L 114.929688 16.769531 L 140.765625 27.945312 C 145.625 30.046875 133.714844 34.945312 125.503906 34.113281 "/>
<path style=" stroke:none;fill-rule:evenodd;fill:rgb(83.921569%,94.901961%,96.862745%);fill-opacity:1;" d="M 125.503906 34.113281 L 0.226562 21.410156 L 0.226562 11.945312 L 128.011719 30.410156 C 135.007812 31.421875 141.335938 30.195312 141.617188 28.492188 C 143.757812 30.789062 133.0625 34.878906 125.503906 34.113281 "/>
<path style=" stroke:none;fill-rule:evenodd;fill:rgb(77.647059%,92.54902%,96.470588%);fill-opacity:1;" d="M 94.242188 32.355469 L 71.019531 35.574219 C 68.230469 35.960938 65.949219 37.089844 65.949219 38.089844 C 65.949219 39.085938 68.230469 39.585938 71.019531 39.199219 L 94.242188 35.980469 C 97.03125 35.59375 99.3125 34.460938 99.3125 33.464844 C 99.3125 32.46875 97.03125 31.96875 94.242188 32.355469 "/>
</g>
</svg>
