<svg height="1890pt" preserveAspectRatio="xMidYMid meet" viewBox="0 0 3543 1890" width="3543pt" xmlns="http://www.w3.org/2000/svg"><g transform="matrix(.1 0 0 -.1 0 1890)"><path d="m13422 11817c-117-109-132-119-165-113-35 7-169 74-245 122-40 26-57 32-70 25-9-5-68-61-131-124l-114-115 78-46c43-25 122-64 176-87l99-42 89 81c49 45 93 82 98 82 4 0 60-27 123-60 157-83 222-110 240-100 16 9 159 153 209 212l31 36-174 91c-96 50-177 91-181 91-3 0-32-24-63-53z"/><path d="m26422 11817c-117-109-132-119-165-113-35 7-169 74-245 122-40 26-57 32-70 25-9-5-68-61-131-124l-114-115 78-46c43-25 122-64 176-87l99-42 89 81c49 45 93 82 98 82 4 0 60-27 123-60 157-83 222-110 240-100 16 9 159 153 209 212l31 36-174 91c-96 50-177 91-181 91-3 0-32-24-63-53z"/><path d="m17425 11735c-65-70-183-248-190-289-9-43-1-68 41-128 18-26 37-71 44-100 6-29 31-229 56-445 46-416 46-423 1-454-30-19-867-27-867-8 0 7 24 51 53 98 69 113 77 133 77 194 0 131-129 269-316 339-120 46-343 24-506-49-56-25-59-28-133-154-78-133-141-257-133-264 3-3 39-1 82 5 93 12 146 2 229-42 53-29 137-108 137-130 0-15-1717-5-1761 10s-112 86-127 133c-6 19-48 232-92 474-82 440-116 608-130 634-5 9-17-5-40-45-18-33-73-123-122-201l-89-143 17-54c9-29 15-60 11-67-3-8-94-65-204-128-337-195-366-218-430-344-81-161-174-443-160-481 4-11 19-16 44-16 49 0 220-28 458-75 126-25 201-36 220-31 42 11 82 59 149 179 33 59 67 114 77 123 16 14 18 12 32-38 9-29 21-75 28-103 30-128 99-223 176-244 25-7 362-11 1008-11h970l36 58c20 31 47 76 60 99 13 24 27 43 30 43s11-12 18-27c7-16 31-61 53-100l42-73h1377 1378l10 38c5 20 40 149 77 287l66 250-16 52c-45 142-297 385-441 424-54 15-143-5-321-71-253-95-620-276-777-382-56-38-60-39-53-17 4 13 23 85 42 159 35 131 36 139 30 260-3 69-7 133-9 143-1 13 9 22 37 32 71 25 107 71 180 228l45 96-87 47c-101 55-196 120-233 160-31 35-76 112-93 162l-14 37zm-3666-1057c17-81 31-159 31-173 0-24-3-25-57-25-109 0-310 29-343 50-22 14 6 39 103 94 67 38 94 61 152 131 38 46 73 81 76 77s20-73 38-154zm4813-132c106-54 238-182 238-233 0-11-96-13-530-13-291 0-530 2-530 5 0 13 179 121 284 171 222 107 415 132 538 70z"/><path d="m23677 11718c-42-52-94-137-177-288l-62-115 62-56 63-56 34-174c63-328 85-479 87-604l1-120h-207c-206 0-206 0-233 25-52 49-67 95-81 250-7 80-13 155-14 168-1 55-62-2-161-151l-79-120v-76c0-47-5-82-12-89-8-8-54-12-140-12-147 0-140-6-112 105 19 73 32 395 16 395-19 0-120-119-189-222-63-95-68-106-74-172-10-108-5-106-275-106-123 0-224 3-224 8 0 4 18 68 39 142 46 159 71 274 71 326v37l-21-19c-62-55-229-329-229-374 0-42-24-96-48-109-27-14-1859-15-1896-1-14 5-30 18-36 30-6 11-22 143-35 293-13 149-36 396-50 547-13 151-31 340-37 420l-13 145-96-125c-52-69-110-145-127-171l-33-45 41-510c48-609 78-961 85-991l5-23h1055c720 0 1063 3 1082 11 15 5 40 22 55 36l27 26 34-36 33-37h268 269l38 35c22 19 44 35 50 35 7 0 26-16 45-35l33-35h244 244l38 56 37 57 25-57 26-56h336c371 0 364-1 395 63 24 52 87 332 93 417 3 44-4 162-16 284-33 328-46 276 128 489l149 181-78 42c-100 54-272 167-322 212-52 47-68 81-68 142 0 63-16 65-63 8z"/><path d="m33267 11718c-42-52-94-137-177-288l-62-115 62-56 63-56 34-174c63-328 85-479 87-604l1-120h-480-480l-68 32c-95 45-164 115-280 286-55 81-104 147-108 147-7 0-122-176-188-289l-31-51 48-53c68-75 136-166 161-214 44-86 20-141-107-250-61-53-201-160-288-220-103-72-307-143-412-143-46 0-192 26-192 35 0 1 22 49 50 106 108 227 164 459 164 684 1 116-3 154-22 220-68 240-156 396-249 444-32 16-90 14-131-6-105-49-278-290-347-483-23-65-27-90-26-187 2-265 70-365 247-364 41 0 93 6 116 13 64 19 130 89 182 192 49 96 64 98 53 5-17-137-156-319-368-479-183-137-337-202-581-245-106-19-103-19-83 11 9 14 13 29 8 33-4 4-73 47-152 96l-143 87-87-86c-51-51-95-86-107-86-21 0-134 66-217 127l-48 35-26-23c-14-13-63-69-109-124l-83-100 22-23c28-30 145-103 219-137l58-26 53 58c30 32 65 71 78 87l25 28 118-71c64-39 135-80 156-91l39-20 55 61 55 61 128-25c225-45 353-61 498-62 135 0 142 1 200 29 57 28 162 121 198 175l17 25 37-21c54-30 272-124 373-161 204-74 275-77 395-18 154 76 346 302 451 534l34 73 27-14c65-33 132-37 696-37 620 0 589-3 621 63 24 52 87 332 93 417 3 44-4 162-16 284-33 328-46 276 128 489l149 181-78 42c-100 54-272 167-322 212-52 47-68 81-68 142 0 63-16 65-63 8zm-2584-1126c40-38 69-97 65-135-3-27-10-34-51-51-43-18-54-19-105-8-64 13-135 59-140 90-4 26 70 109 113 128 40 18 83 10 118-24z"/><path d="m30383 11706c-60-19-103-48-160-109-66-70-94-127-101-203-4-57-3-62 22-82 15-11 61-28 104-38 42-10 81-21 85-24 5-4-21-26-56-48-59-37-137-114-137-134 0-5 28 7 63 27 163 95 290 145 390 153l68 5 50 71c42 59 47 71 32 73-10 1-92 7-183 12-171 11-257 30-310 70-20 16-22 22-11 35 16 19 109 66 131 66 9 0 45-18 79-40s66-38 71-35 25 33 46 66c33 55 35 63 23 85-31 59-114 78-206 50z"/><path d="m24637 11558c-54-83-176-305-209-376l-28-62 80-618c45-339 84-625 88-636 7-15 14-9 44 36 74 112 121 225 154 373 38 170 13 695-56 1173-25 175-29 180-73 110z"/><path d="m34217 11558c-54-83-176-305-209-376l-28-62 80-618c45-339 84-625 88-636 7-15 14-9 44 36 74 112 121 225 154 373 38 170 13 695-56 1173-25 175-29 180-73 110z"/><path d="m26850 11514c-18-33-73-123-122-201l-89-143 17-54c9-29 15-60 11-67-3-8-94-65-204-128-337-195-366-218-430-344-81-161-174-443-160-481 4-11 19-16 44-16 49 0 220-28 458-75 126-25 201-36 220-31 42 11 82 59 149 179 33 59 67 114 77 123 16 14 18 12 32-38 9-29 21-75 28-103 30-128 99-223 176-244 26-7 492-11 1439-11h1402l16 88c53 293 60 350 60 497 1 174-10 221-80 355-40 75-191 310-199 310-2 0-25-39-51-87-26-49-75-133-109-189l-61-100 47-63c50-66 129-212 173-320 14-36 26-66 26-68s-550-2-1222-1c-939 3-1231 6-1259 16-44 15-112 86-127 133-6 19-48 232-92 474-82 440-116 608-130 634-5 9-17-5-40-45zm-91-836c17-81 31-159 31-173 0-24-3-25-57-25-109 0-310 29-343 50-22 14 6 39 103 94 67 38 94 61 152 131 38 46 73 81 76 77s20-73 38-154z"/><path d="m21025 7955c-467-88-804-455-949-1034-14-53-70-328-126-611-55-283-128-631-162-773-44-183-59-260-51-268 16-16 344 7 358 25 6 7 34 132 64 276l53 262 70 122c164 282 329 509 467 638 92 86 155 122 220 123 94 1 93-26-30-645-50-249-93-490-96-535-11-152 40-247 149-280 175-52 398 43 619 264l96 96 12 72c22 127 1 125-143-15-153-148-249-211-322-212-76 0-74 37 47 635 89 438 93 466 94 590 0 123-1 133-28 183-66 125-221 165-393 101-72-27-199-109-276-178-110-99-268-304-358-464-18-32-34-56-36-54-6 5 144 759 177 889 39 157 100 327 141 395 68 114 173 179 308 190 86 7 156-8 264-60l89-42 113 120c77 82 113 126 111 140-6 49-314 81-482 50z"/><path d="m24741 7955c-142-32-295-127-423-264-76-81-198-245-198-266 0-27 95-81 116-67 6 4 34 41 62 83 60 88 166 194 232 232 69 40 162 61 243 54 251-21 485-322 586-757 78-329 119-885 107-1421-5-238-4-288 8-298 10-9 33-7 97 8 67 15 89 25 107 48 12 15 317 494 676 1063l654 1035 58 3c32 2 64 8 70 13 20 16 37 109 23 125-18 21-661 20-682-1-16-16-33-108-22-125 3-6 45-10 100-10 52 0 106-5 121-10 25-10 26-13 20-53-15-90-125-314-288-582-140-230-553-875-560-875-5 0-8 58-8 129 0 269-38 653-90 911-118 586-347 926-685 1015-86 23-246 28-324 10z"/><path d="m17535 7598-217-142-57-114c-54-110-55-114-37-128 18-12 38-4 215 87 108 56 202 107 209 114 14 12 142 280 142 296 0 4-9 13-19 18-16 9-56-13-236-131z"/><path d="m27775 7598-217-142-57-114c-54-110-55-114-37-128 18-12 38-4 215 87 108 56 202 107 209 114 14 12 142 280 142 296 0 4-9 13-19 18-16 9-56-13-236-131z"/><path d="m30315 7598-217-142-57-114c-54-110-55-114-37-128 18-12 38-4 215 87 108 56 202 107 209 114 14 12 142 280 142 296 0 4-9 13-19 18-16 9-56-13-236-131z"/><path d="m13735 7554c-414-41-645-117-834-274-152-127-265-359-287-592-6-58-4-68 10-74 21-8 292 119 319 148 12 14 17 37 17 74 0 241 178 454 435 517 60 15 185 32 185 25 0-26-287-1427-306-1493-14-49-41-122-60-162-54-113-117-149-278-159l-91-6-117-117c-108-106-133-141-110-155 16-10 688-38 932-40 284-1 368 10 567 76 239 79 434 217 524 373 79 136 92 304 31 427-58 118-187 221-388 308l-81 36 56 18c229 75 427 219 500 365 50 98 64 162 59 275-3 91-7 109-36 169-66 133-206 208-464 247-73 11-508 22-583 14zm405-158c42-8 98-23 126-35 59-26 127-90 148-143 40-94 26-261-31-378-40-84-162-201-254-245-113-53-339-88-339-52 0 7 38 204 85 437s85 426 85 427c0 8 114 1 180-11zm-160-1042c156-46 263-143 308-280 56-168 26-380-69-488-50-57-159-112-249-126-132-20-369-8-577 31-62 12-113 25-113 29s17 19 39 34c100 70 235 235 306 375 38 77 89 240 111 355l18 99 86-6c47-4 110-14 140-23z"/><path d="m22465 7426-160-42-32-150c-17-82-36-175-43-206l-11-58h-124-124l-58-66c-33-37-58-75-58-87 0-22 3-22 163-25 115-2 162-6 162-14 0-6-48-251-107-542-103-513-107-535-107-666-1-117 2-141 20-180 27-57 67-97 124-124 67-31 218-28 318 7 90 31 189 89 284 166 109 88 116 98 132 181 24 127 8 131-120 34-156-118-295-179-368-160-35 9-50 54-42 129 6 49 201 1052 223 1146l6 24 171-6c94-4 196-10 226-13l56-6 63 73c73 86 77 94 61 114-10 13-55 15-276 15-211 0-264 3-264 13 0 7 20 114 45 237 45 223 46 252 11 249-6 0-83-19-171-43z"/><path d="m15415 6986c-128-32-275-127-425-275l-107-106-13-72c-21-130-4-126 162 40 143 142 221 196 292 204 102 12 101-59-13-632-45-225-106-509-135-630-36-152-50-226-44-238 8-16 20-17 141-11 73 4 152 10 177 13l45 6 57 282 57 283 87 144c202 334 415 587 553 654 80 40 119 40 198 3 49-23 65-27 77-18 31 23 206 272 206 293 0 30-83 64-174 71-125 10-250-37-390-145-137-105-306-303-410-480-27-45-51-80-53-78s8 64 22 137c36 180 43 326 20 404-38 134-164 192-330 151z"/><path d="m17170 6878c-201-66-370-126-377-135-16-21-27-113-15-125 7-7 35-4 89 11 44 11 106 24 138 27 53 6 62 4 79-15 39-43 29-123-81-676-90-455-94-558-21-650 51-65 178-91 298-60 129 33 280 129 431 272 75 72 76 74 90 146 28 141 3 142-130 9-240-242-409-295-386-120 12 95 175 909 221 1103 25 105 51 216 59 248 12 50 11 59-2 72-8 8-17 15-21 14-4 0-171-55-372-121z"/><path d="m27410 6878c-201-66-370-126-377-135-16-21-27-113-15-125 7-7 35-4 89 11 44 11 106 24 138 27 53 6 62 4 79-15 39-43 29-123-81-676-90-455-94-558-21-650 51-65 178-91 298-60 129 33 280 129 431 272 75 72 76 74 90 146 28 141 3 142-130 9-240-242-409-295-386-120 12 95 175 909 221 1103 25 105 51 216 59 248 12 50 11 59-2 72-8 8-17 15-21 14-4 0-171-55-372-121z"/><path d="m28854 6989c-130-22-259-88-365-187-114-106-169-218-169-343 0-127 70-246 288-486 174-193 207-245 207-328 0-78-30-121-112-162-51-25-69-28-153-28-116 0-201 24-313 90-61 36-81 44-96 36-10-6-60-54-110-108-63-67-91-104-89-118 2-16 23-27 99-52 310-104 587-75 828 89 81 56 157 141 198 224 35 72 38 84 38 164 0 79-3 92-38 162-46 94-95 160-231 313-177 199-234 300-221 397 14 103 86 156 223 165 90 6 169-9 207-39 40-32 56-74 58-152l2-71 64-3c35-2 68 1 72 5 13 13 77 342 72 364-4 12-24 24-61 34-145 43-279 54-398 34z"/><path d="m29950 6878c-201-66-370-126-377-135-16-21-27-113-15-125 7-7 35-4 89 11 44 11 106 24 138 27 53 6 62 4 79-15 39-43 29-123-81-676-90-455-94-558-21-650 51-65 178-91 298-60 129 33 280 129 431 272 75 72 76 74 90 146 28 141 3 142-130 9-240-242-409-295-386-120 12 95 175 909 221 1103 25 105 51 216 59 248 12 50 11 59-2 72-8 8-17 15-21 14-4 0-171-55-372-121z"/><path d="m31590 6985c-273-55-521-241-718-539-128-194-201-423-202-633-1-277 167-516 398-564 73-15 212-6 314 20 390 100 751 503 844 943 27 126 25 323-3 413-90 283-332 421-633 360zm74-176c52-14 119-79 145-138 73-171 65-521-19-767-53-158-163-335-247-402-77-60-121-76-209-77-72 0-85 3-130 30-103 64-151 227-141 480 10 267 76 479 210 673 117 170 252 240 391 201z"/><path d="m32855 6986c-135-38-267-122-410-259l-96-92-13-71c-13-69-7-114 13-114 6 0 54 44 108 98 155 155 266 231 339 232 44 0 57-21 55-86-1-71-166-901-235-1186-42-171-51-221-42-234 10-14 30-14 176-4 101 7 170 16 177 23s37 132 66 278l54 266 58 99c170 290 325 506 455 635 127 126 249 180 293 131 32-35 21-126-72-596-106-533-116-596-102-671 13-71 32-106 77-143 146-120 423-31 692 224 78 74 85 83 98 139 36 157 10 163-125 28-184-185-322-261-376-206-25 25-17 82 89 623 52 261 97 506 100 543 8 78-7 174-34 227-55 109-193 154-345 115-119-31-237-110-372-247-122-124-209-240-315-417-21-36-37-57-34-46 25 96 69 358 73 430 8 141-23 218-107 264-54 30-169 38-245 17z"/><path d="m18967 6979c-335-49-603-224-832-544-178-249-262-504-253-765 6-150 26-214 94-288 24-28 44-52 44-55s-24-20-52-38c-246-150-411-342-453-525-49-211 86-381 360-455 120-33 374-33 497-1 223 59 397 165 567 348 219 235 280 403 396 1104 48 285 121 650 192 948 37 158 53 246 47 252-22 22-486 37-607 19zm8-214c79-17 185-54 185-65 0-4-14-74-30-156-35-170-46-194-225-464-178-267-325-429-449-490-111-56-180-37-205 55-57 208 120 800 297 995 114 127 241 164 427 125zm-5-1165c-65-443-86-549-137-694-42-122-62-162-120-244-87-123-211-190-368-199-205-12-395 72-470 208-41 74-42 167-2 250 38 79 127 180 232 265 82 67 100 77 201 109 176 57 312 151 462 319 68 76 179 237 227 329 16 31 30 55 31 54s-25-180-56-397z"/></g></svg>